<svg id="bf9061b6-cee6-415f-b1e4-e16f388c095c" data-name="Layer 1" xmlns="http://www.w3.org/2000/svg" width="192" height="192" viewBox="0 0 192 192"><defs><style>.bb1c4848-9a08-4309-9af8-eafe65c29bbf{fill:none;}.f57605a2-e1d9-47e2-b7b5-2c5f38582453{fill:orange;}.e619493a-8088-4cc6-8119-482c144911f6{fill:#57a0ee;}.f360185a-29c7-425a-9c7b-9d52365617f7{fill:#fff;}</style></defs><rect class="bb1c4848-9a08-4309-9af8-eafe65c29bbf" x="-0.21" y="-0.21" width="192.21" height="192.21"/><g id="a94bfb98-d7c4-4e01-90ae-a053cdeb8172" data-name="cloudy-day-3"><path class="f57605a2-e1d9-47e2-b7b5-2c5f38582453" d="M65.5,138.8a4,4,0,0,1-4-4V122.91a4,4,0,1,1,8,0v11.91A4,4,0,0,1,65.5,138.8Z"/><path class="f57605a2-e1d9-47e2-b7b5-2c5f38582453" d="M31.8,124.83A3.93,3.93,0,0,1,29,123.67a4,4,0,0,1,0-5.62l8.42-8.43A4,4,0,0,1,43,115.24l-8.42,8.43A4,4,0,0,1,31.8,124.83Z"/><path class="f57605a2-e1d9-47e2-b7b5-2c5f38582453" d="M29.75,91.13H17.84a4,4,0,1,1,0-7.95H29.75a4,4,0,1,1,0,7.95Z"/><path class="f57605a2-e1d9-47e2-b7b5-2c5f38582453" d="M40.22,65.85a4,4,0,0,1-2.81-1.17L29,56.26a4,4,0,0,1,5.62-5.62L43,59.06a4,4,0,0,1,0,5.62A3.94,3.94,0,0,1,40.22,65.85Z"/><path class="f57605a2-e1d9-47e2-b7b5-2c5f38582453" d="M65.5,55.38a4,4,0,0,1-4-4V39.49a4,4,0,1,1,8,0V51.4A4,4,0,0,1,65.5,55.38Z"/><path class="f57605a2-e1d9-47e2-b7b5-2c5f38582453" d="M90.79,65.85A3.94,3.94,0,0,1,88,64.68a4,4,0,0,1,0-5.62l8.42-8.42A4,4,0,1,1,102,56.26l-8.43,8.42A3.93,3.93,0,0,1,90.79,65.85Z"/><path class="f57605a2-e1d9-47e2-b7b5-2c5f38582453" d="M113.17,91.13H101.26a4,4,0,1,1,0-7.95h11.91a4,4,0,1,1,0,7.95Z"/><path class="f57605a2-e1d9-47e2-b7b5-2c5f38582453" d="M99.21,124.83a3.94,3.94,0,0,1-2.81-1.16L88,115.24a4,4,0,0,1,5.61-5.62l8.43,8.43a4,4,0,0,1-2.81,6.78Z"/><circle class="f57605a2-e1d9-47e2-b7b5-2c5f38582453" cx="65.51" cy="87.15" r="19.86"/><path class="f57605a2-e1d9-47e2-b7b5-2c5f38582453" d="M65.5,111A23.84,23.84,0,1,1,89.34,87.15,23.86,23.86,0,0,1,65.5,111Zm0-39.72A15.89,15.89,0,1,0,81.39,87.15,15.9,15.9,0,0,0,65.5,71.27Z"/><path class="e619493a-8088-4cc6-8119-482c144911f6" d="M175.54,120.52A32.47,32.47,0,0,0,143,88a34.54,34.54,0,0,0-11.13,2c-1.19-13.5-12.31-24.62-26.21-24.62A26.61,26.61,0,0,0,79,91.92a34,34,0,0,0,1.59,9.14,13.41,13.41,0,0,0-4-.4,26.62,26.62,0,0,0-.8,53.23h68.33C161.64,151.9,175.54,138,175.54,120.52Z"/><path class="f360185a-29c7-425a-9c7b-9d52365617f7" d="M75.83,156.27a29,29,0,0,1,.8-58h.79a28.67,28.67,0,0,1,28.21-35.36c13.75,0,25.62,10.3,28.19,23.93A34.42,34.42,0,0,1,143,85.57a35,35,0,0,1,34.95,35c0,18.21-14.4,33.57-33.5,35.74Zm.8-53.23a24.24,24.24,0,0,0-.73,48.47h68.26c16.41-1.88,29-15.21,29-31A30.23,30.23,0,0,0,143,90.33,31.66,31.66,0,0,0,132.6,92.2a2.39,2.39,0,0,1-3.13-2c-1.11-12.6-11.58-22.46-23.84-22.46A24.27,24.27,0,0,0,81.39,91.92a32,32,0,0,0,1.5,8.49,2.39,2.39,0,0,1-3,2.91A11.79,11.79,0,0,0,76.63,103Z"/></g></svg>