<svg id="ba21c6ee-3a8f-47ec-b753-ce529eea209d" data-name="Layer 1" xmlns="http://www.w3.org/2000/svg" width="512" height="512" viewBox="0 0 512 512"><defs><style>.b5916fb4-8bd8-4cff-a32b-fb58ed1b9711{fill:none;}.a121a7d8-ee90-4930-b45e-8ea40db5bde9{fill:orange;}.fe5d2573-fb1b-4f5f-93f3-60cac03ea4bf{fill:#57a0ee;}.b1f9b4d7-c321-45a8-821c-e221641464a7{fill:#fff;}</style></defs><rect class="b5916fb4-8bd8-4cff-a32b-fb58ed1b9711" width="512" height="512"/><g id="a59a1420-93b3-4a27-b61e-4a4011f5a2e7" data-name="cloudy-day-3"><path class="a121a7d8-ee90-4930-b45e-8ea40db5bde9" d="M175.06,370.28a10.58,10.58,0,0,1-10.59-10.58V328a10.59,10.59,0,0,1,21.17,0V359.7A10.58,10.58,0,0,1,175.06,370.28Z"/><path class="a121a7d8-ee90-4930-b45e-8ea40db5bde9" d="M85.27,333.09A10.58,10.58,0,0,1,77.79,315l22.44-22.46a10.59,10.59,0,0,1,15,15L92.75,330A10.51,10.51,0,0,1,85.27,333.09Z"/><path class="a121a7d8-ee90-4930-b45e-8ea40db5bde9" d="M79.83,243.31H48.08a10.59,10.59,0,0,1,0-21.17H79.83a10.59,10.59,0,0,1,0,21.17Z"/><path class="a121a7d8-ee90-4930-b45e-8ea40db5bde9" d="M107.71,176a10.55,10.55,0,0,1-7.48-3.1L77.79,150.42a10.58,10.58,0,0,1,15-15L115.2,157.9A10.58,10.58,0,0,1,107.71,176Z"/><path class="a121a7d8-ee90-4930-b45e-8ea40db5bde9" d="M175.06,148.08a10.59,10.59,0,0,1-10.59-10.59V105.75a10.59,10.59,0,0,1,21.17,0v31.74A10.59,10.59,0,0,1,175.06,148.08Z"/><path class="a121a7d8-ee90-4930-b45e-8ea40db5bde9" d="M242.4,176a10.58,10.58,0,0,1-7.48-18.06l22.44-22.44a10.58,10.58,0,1,1,15,15l-22.44,22.44A10.55,10.55,0,0,1,242.4,176Z"/><path class="a121a7d8-ee90-4930-b45e-8ea40db5bde9" d="M302,243.31H270.29a10.59,10.59,0,1,1,0-21.17H302a10.59,10.59,0,0,1,0,21.17Z"/><path class="a121a7d8-ee90-4930-b45e-8ea40db5bde9" d="M264.84,333.09a10.53,10.53,0,0,1-7.48-3.1l-22.44-22.45a10.58,10.58,0,1,1,15-15L272.32,315a10.58,10.58,0,0,1-7.48,18.06Z"/><circle class="a121a7d8-ee90-4930-b45e-8ea40db5bde9" cx="175.06" cy="232.72" r="52.91"/><path class="a121a7d8-ee90-4930-b45e-8ea40db5bde9" d="M175.06,296.21a63.49,63.49,0,1,1,63.48-63.49A63.56,63.56,0,0,1,175.06,296.21Zm0-105.81a42.33,42.33,0,1,0,42.32,42.32A42.36,42.36,0,0,0,175.06,190.4Z"/><path class="fe5d2573-fb1b-4f5f-93f3-60cac03ea4bf" d="M468.15,321.6a86.47,86.47,0,0,0-86.76-86.76c-10.58,0-20.1,2.11-29.63,5.29-3.17-36-32.8-65.6-69.83-65.6A70.9,70.9,0,0,0,211,245.42c0,8.46,2.12,16.93,4.24,24.34-3.18-1.06-7.41-1.06-10.59-1.06a70.89,70.89,0,0,0-70.89,70.89c0,38.09,30.69,69.84,68.78,70.89h182C431.12,405.19,468.15,368.16,468.15,321.6Z"/><path class="b1f9b4d7-c321-45a8-821c-e221641464a7" d="M202.57,416.83c-41.51-1.14-75.12-35.79-75.12-77.24a77.33,77.33,0,0,1,77.23-77.24h2.11a76.37,76.37,0,0,1,75.14-94.17c36.63,0,68.26,27.43,75.1,63.73a91.64,91.64,0,0,1,24.36-3.41,93.21,93.21,0,0,1,93.11,93.1c0,48.49-38.36,89.41-89.23,95.19ZM204.68,275a64.62,64.62,0,0,0-64.54,64.55c0,34.64,28.09,63.59,62.61,64.55H384.56c43.73-5,77.25-40.52,77.25-82.54a80.51,80.51,0,0,0-80.42-80.41c-8.83,0-17.34,1.54-27.61,5a6.36,6.36,0,0,1-8.34-5.47c-3-33.54-30.86-59.82-63.51-59.82a64.63,64.63,0,0,0-64.55,64.55c0,7.56,1.92,15.33,4,22.6a6.35,6.35,0,0,1-1.73,6.33,6.28,6.28,0,0,1-6.39,1.42C211.06,275,207.37,275,204.68,275Z"/></g></svg>